<svg width="96" height="100" viewBox="0 0 96 100" fill="none" xmlns="http://www.w3.org/2000/svg">
<g clip-path="url(#clip0_2134_73)">
<path d="M77.5636 9.21652C75.152 12.023 74.0292 18.3404 76.4741 24.7445C78.919 31.1486 82.6669 29.7574 85.003 36.2873C88.0863 44.9039 86.6514 56.4789 86.6514 56.4789C86.6514 56.4789 90.358 67.2104 92.9419 55.8115C98.6603 34.3999 77.5636 14.4891 77.5636 9.21652Z" fill="url(#paint0_radial_2134_73)"/>
<path d="M48.1395 98.1083C72.834 98.1083 92.8382 78.0023 92.8382 53.2135C92.8382 28.4247 72.834 8.31863 48.1636 8.31863C23.4933 8.31863 3.4891 28.4186 3.4891 53.2104C3.44177 78.0264 23.4691 98.1083 48.1395 98.1083Z" fill="url(#paint1_radial_2134_73)"/>
<path d="M81.6308 80.8952C80.6646 81.5766 79.6511 82.1881 78.5978 82.7252C79.9931 80.68 81.2804 78.5632 82.4545 76.3836C83.407 75.3297 84.2801 74.3049 84.991 73.1977C85.3374 72.6531 85.7271 71.9817 86.1409 71.2026C88.6502 66.6829 91.4174 59.3689 91.4959 51.8555V51.2858C91.5092 49.3998 91.3164 47.518 90.9209 45.6739C90.9411 45.8179 90.9592 45.9618 90.9773 46.1058C90.9552 45.995 90.936 45.8833 90.9129 45.7726C90.9501 45.9739 90.9793 46.1752 91.0136 46.3765C91.5261 50.7271 91.1616 54.97 89.334 58.0985C89.3048 58.1438 89.2756 58.1871 89.2464 58.2314C90.1939 53.4772 90.5111 48.2267 89.4568 42.9712C89.4568 42.9712 89.0349 40.4164 85.8942 32.6595C84.0817 28.1951 80.8766 24.5341 78.04 21.8676C75.5538 18.7924 73.2962 16.7339 72.0516 15.4192C69.4516 12.6833 68.3621 10.6308 67.914 9.29201C67.5264 9.09773 62.5631 4.27808 62.1694 4.09488C60.0034 7.45192 53.1914 17.9529 56.4297 27.7653C57.8979 32.2115 61.6125 36.8248 65.4994 39.4158C65.6695 39.6111 67.8154 41.9324 68.8314 47.1828C69.8836 52.6034 69.3348 56.8322 67.1659 63.0873C64.6193 68.5743 58.1013 73.9979 51.989 74.5526C38.9319 75.7384 34.1509 67.9985 34.1509 67.9985C38.8171 69.8588 43.9757 69.4732 47.1124 67.5435C50.2742 65.5877 52.1864 64.1382 53.7391 64.7099C55.2677 65.2716 56.4901 63.6178 55.3926 61.9065C54.5482 60.6066 53.34 59.5835 51.9184 58.9648C50.4968 58.346 48.9245 58.1589 47.3973 58.4267C44.2325 58.9411 41.3325 61.4465 37.1858 59.0196C36.9174 58.8638 36.6576 58.6938 36.4074 58.5102C36.1346 58.33 37.2966 58.784 37.0247 58.5797C36.2191 58.1418 34.7893 57.1865 34.4187 56.8463C34.3573 56.7899 35.045 57.0657 34.9836 57.0094C31.1058 53.8174 31.5902 51.6612 31.712 50.3084C31.8127 49.2263 32.5176 47.8402 33.7007 47.2775C34.2737 47.5905 34.6312 47.8291 34.6312 47.8291C34.6312 47.8291 34.3865 47.3258 34.2546 47.0661C34.3009 47.0459 34.3452 47.051 34.3915 47.0318C34.8608 47.2583 35.9019 47.8472 36.4467 48.2066C37.1586 48.7099 37.3862 49.1568 37.3862 49.1568C37.3862 49.1568 37.5735 49.0561 37.4345 48.6163C37.3842 48.4371 37.1677 47.8663 36.4628 47.2905H36.5071C36.9291 47.5299 37.3291 47.8061 37.7024 48.116C37.9038 47.3932 38.2592 46.6383 38.1807 45.2884C38.1324 44.3392 38.1545 44.0935 37.9874 43.7271C37.8373 43.4121 38.0709 43.2893 38.3317 43.6164C38.2874 43.3602 38.2127 43.1101 38.1092 42.8715V42.8474C38.4344 41.7159 44.9817 38.7746 45.46 38.4304C46.243 37.8774 46.8996 37.1644 47.3863 36.3386C47.7508 35.7588 48.0247 34.9445 48.0911 33.7104C48.1274 32.8205 47.7125 32.2276 41.0918 31.5341C39.2793 31.3559 38.2189 30.0443 37.6148 28.8343C37.505 28.5736 37.3922 28.3371 37.2795 28.1015C37.172 27.8257 37.0858 27.542 37.0217 27.253C38.1042 24.1456 39.9227 21.5153 42.5972 19.5323C42.7432 19.3994 42.0152 19.5665 42.1602 19.4316C42.3303 19.2766 43.44 18.8276 43.6495 18.727C43.9052 18.6062 42.5539 18.0324 41.3606 18.1723C40.1453 18.3092 39.8875 18.4542 39.239 18.729C39.5079 18.4612 40.3638 18.1099 40.1634 18.1119C38.8543 18.3133 37.2251 19.0742 35.8335 19.9359C35.8304 19.7857 35.8588 19.6365 35.9171 19.498C35.2686 19.7728 33.6756 20.8861 33.2114 21.8273C33.2315 21.6469 33.2406 21.4653 33.2386 21.2838C32.7445 21.6956 32.2989 22.1623 31.9104 22.6749L31.8862 22.697C28.1242 21.1871 24.8144 21.0865 22.013 21.7629C21.3998 21.1479 21.1007 21.5978 19.7061 18.5347C19.6114 18.3505 19.7786 18.7169 19.7061 18.5347C19.4765 17.9408 19.8461 19.3269 19.7061 18.5347C17.3619 20.3838 14.2766 22.4796 12.7954 23.9593C12.7772 24.0187 14.5233 23.4661 12.7954 23.9593C12.1912 24.1325 12.2315 24.4908 12.1398 27.7341C12.1177 27.9797 12.1398 28.2555 12.1177 28.477C10.9345 29.9869 10.129 31.2593 9.82385 31.9206C8.29428 34.5559 6.60864 38.6649 4.97536 45.1626C5.69669 43.4047 6.56543 41.7109 7.5723 40.0993C6.21391 43.549 4.90085 48.9655 4.63904 57.3063C4.9672 55.585 5.38838 53.8826 5.90075 52.2068C5.57954 59.1275 6.77302 66.0348 9.3979 72.4467C10.3374 74.7438 11.8911 78.2307 14.5334 82.0498C22.8478 90.7962 34.5697 96.2319 47.5494 96.2319C61.101 96.2319 73.27 90.306 81.6308 80.8952Z" fill="url(#paint2_linear_2134_73)"/>
<path d="M71.6045 87.2439C88.0048 85.3455 95.2679 68.4505 85.9415 68.1183C77.5204 67.8455 63.8409 88.1398 71.6045 87.2439Z" fill="url(#paint3_radial_2134_73)"/>
<path d="M87.1227 64.6667C98.4056 58.1025 95.4593 43.9224 95.4593 43.9224C95.4593 43.9224 91.1042 48.9796 88.1468 57.0406C85.2286 65.027 80.3389 68.6317 87.1227 64.6667Z" fill="url(#paint4_radial_2134_73)"/>
<path d="M51.3014 95.634C67.033 100.652 80.5564 88.2636 72.2198 84.1265C64.6465 80.396 43.8348 93.2614 51.3014 95.634Z" fill="url(#paint5_radial_2134_73)"/>
<path d="M88.2948 70.6872C88.6774 70.1477 89.195 68.4193 89.6522 67.6462C92.4293 63.1648 92.4495 59.5934 92.4495 59.5088C94.1271 51.1318 93.975 47.7113 92.9429 41.3898C92.1121 36.2964 88.4801 28.9994 85.3333 25.4854C82.0909 21.8616 84.3757 23.0443 81.236 20.4C78.484 17.3509 75.8166 14.3311 74.3636 13.1161C63.8631 4.33747 64.0997 2.47423 64.3021 2.15615C64.2678 2.19339 64.2175 2.24875 64.1541 2.32123C64.0292 1.82598 63.9416 1.40924 63.9416 1.40924C63.9416 1.40924 58.202 7.14692 56.9936 16.7097C56.2052 22.9507 58.5423 29.4615 61.9277 33.6208C63.6905 35.7764 65.6826 37.734 67.8687 39.4591V39.4591C70.4264 43.1312 71.8341 47.662 71.8341 52.536C71.8341 64.7401 61.9317 74.6341 49.7164 74.6341C48.0517 74.6352 46.3921 74.4488 44.7692 74.0785C39.0054 72.9793 35.6764 70.0722 34.0169 68.0982C33.0654 66.9678 32.6616 66.1434 32.6616 66.1434C37.8252 67.9925 43.5367 67.606 47.0076 65.6884C50.5068 63.7496 52.6234 62.3112 54.3423 62.8779C56.036 63.4426 57.3843 61.8039 56.175 60.1057C54.9898 58.4096 51.9055 55.9786 47.3258 56.654C43.8226 57.1644 40.6135 59.6497 36.0238 57.2419C35.7284 57.0889 35.4411 56.9209 35.1628 56.7386C34.8608 56.5604 36.1466 57.0094 35.8466 56.8071C34.9534 56.3722 33.3725 55.425 32.9626 55.0888C32.8942 55.0324 33.6554 55.3062 33.587 55.2498C29.2953 52.084 29.831 49.946 29.9619 48.6062C30.0697 47.5331 30.8491 46.1581 32.1631 45.6005C32.7975 45.9105 33.1932 46.147 33.1932 46.147C33.1932 46.147 32.9224 45.6518 32.7764 45.3911C32.8277 45.372 32.8771 45.376 32.9274 45.3569C33.447 45.5813 34.5969 46.1621 35.2021 46.5215C35.9906 47.0198 36.2413 47.4637 36.2413 47.4637C36.2413 47.4637 36.4487 47.363 36.2957 46.9272C36.2393 46.749 36.0006 46.1833 35.2202 45.6115H35.2686C35.7317 45.8479 36.174 46.1231 36.5907 46.4339C36.8112 45.7172 37.207 44.9683 37.1194 43.6295C37.066 42.6883 37.0912 42.4437 36.9059 42.0803C36.7397 41.7683 36.9985 41.6465 37.2865 41.9706C37.2371 41.7147 37.1545 41.4663 37.0408 41.2318V41.2076C37.4003 40.0862 44.6463 37.1691 45.174 36.8278C46.0239 36.2946 46.7505 35.5867 47.3057 34.7512C47.7085 34.1754 48.0106 33.3691 48.0861 32.1451C48.1113 31.5935 47.9411 31.1566 46.0218 30.7358C44.8699 30.4852 43.0876 30.2416 40.3396 29.9839C38.3358 29.8067 37.1596 28.5062 36.492 27.3063C36.3702 27.0476 36.2453 26.8131 36.1215 26.5795C36.0034 26.3074 35.9081 26.0259 35.8365 25.738C37.0357 22.6001 39.1951 19.9207 42.0071 18.0817C42.1682 17.9499 41.3627 18.115 41.5238 17.9811C41.7121 17.8281 42.9395 17.3842 43.1722 17.2845C43.4551 17.1647 41.9638 16.596 40.6387 16.7339C39.2934 16.8698 39.0084 17.0137 38.2904 17.2865C38.5925 17.0208 39.536 16.6725 39.3135 16.6745C37.8635 16.8758 36.061 17.6288 34.5204 18.4864C34.5176 18.3366 34.5493 18.1882 34.613 18.0525C33.8951 18.3253 32.1319 19.4286 31.6194 20.3677C31.6412 20.1891 31.651 20.0092 31.6486 19.8292C31.1079 20.2319 30.6147 20.6945 30.1784 21.2083L30.1512 21.2304C25.9935 19.7296 22.3292 19.6289 19.2328 20.3053C18.5541 19.6953 17.4636 18.7723 15.921 15.7353C15.8203 15.5521 15.7598 16.1128 15.6793 15.9366C15.0751 14.5465 14.7176 12.2686 14.773 10.7023C14.773 10.7023 13.5325 11.267 12.5064 13.6275C12.3161 14.0513 12.1932 14.2858 12.0714 14.5203C12.015 14.5888 12.1993 13.7453 12.1721 13.7916C11.9938 14.0935 11.5316 14.5153 11.3292 15.0619C11.1903 15.4645 10.9949 15.693 10.8701 16.1984L10.8409 16.2447C10.8308 16.0957 10.8781 15.6327 10.8409 15.7273C10.3594 16.6963 9.94492 17.6972 9.6003 18.7229C9.04748 20.5348 8.40404 23.0121 8.30234 26.2292C8.27817 26.4728 8.30234 26.7466 8.27716 26.9661C6.96812 28.4589 6.07596 29.7232 5.73964 30.3795C4.04695 32.9967 2.18207 37.0674 0.37358 43.5117C1.17799 41.751 2.13985 40.0665 3.24743 38.4787C1.74404 41.9002 0.29101 47.2724 0 55.5448C0.364465 53.8327 0.830844 52.144 1.39665 50.4876C1.13685 56.0038 1.7803 62.8427 5.26838 70.5634C7.33969 75.0931 12.1076 84.3137 23.7581 91.5009C23.7581 91.5009 27.7215 94.4503 34.5325 96.6608C35.036 96.843 35.5455 97.0232 36.0661 97.1973C35.903 97.1302 35.7449 97.0631 35.5918 96.996C40.1267 98.3546 44.8352 99.0467 49.5693 99.0505C67.2092 99.0656 72.4121 91.9841 72.4121 91.9841L72.3607 92.0223C72.6098 91.7881 72.8494 91.5445 73.0797 91.2915C70.2965 93.9168 63.9416 94.0939 61.5702 93.9087C65.6202 92.7199 68.2856 91.7133 73.4694 89.7293C74.0736 89.5038 74.6938 89.2474 75.3302 88.9602L75.5316 88.8656C75.6575 88.8072 75.7824 88.7518 75.9092 88.6904C78.435 87.5001 80.8101 86.0132 82.9841 84.2614C88.1901 80.1041 89.3279 76.0514 89.915 73.3799C89.8324 73.6356 89.5756 74.2325 89.3944 74.62C88.0541 77.4869 85.0806 79.2504 81.8513 80.7604C83.3876 78.7448 84.8122 76.6465 86.1188 74.4751C87.1791 73.4212 87.5043 71.7864 88.2948 70.6872Z" fill="url(#paint6_radial_2134_73)"/>
<path d="M81.958 80.6295C84.0807 78.2901 85.9858 75.6146 87.4308 72.5766C91.1465 64.7673 96.8962 51.7821 92.3649 38.22C88.7902 27.5026 83.8793 21.6421 77.6473 15.9165C67.5223 6.61947 64.6948 2.46821 64.6948 0C64.6948 0 53.0051 13.0265 58.0751 26.6128C63.1451 40.199 73.5278 39.6987 80.3972 53.8788C88.4801 70.5624 73.8571 88.7689 61.7686 93.8654C62.5087 93.7013 88.6543 87.7875 90.0247 72.8393C89.9895 73.1141 89.4004 77.2483 81.958 80.6295Z" fill="url(#paint7_radial_2134_73)"/>
<path d="M48.0912 32.1481C48.1304 31.2653 47.6723 30.6724 40.3698 29.9879C37.3651 29.7101 36.2151 26.9349 35.8637 25.7662C34.7953 28.5404 34.3533 31.4525 34.5909 34.9747C34.753 37.2818 36.3027 39.7581 37.0449 41.2157C37.0449 41.2157 37.21 41.0013 37.2855 40.9227C38.6812 39.4702 44.5296 37.2567 45.0784 36.9426C45.6845 36.5561 47.9895 34.873 48.0912 32.1481Z" fill="url(#paint8_linear_2134_73)"/>
<path d="M15.9411 15.7504C15.8404 15.5672 15.78 16.1279 15.6994 15.9518C15.0953 14.5616 14.7348 12.3078 14.8214 10.7174C14.8214 10.7174 13.5808 11.2821 12.5547 13.6426C12.3644 14.0664 12.2416 14.3009 12.1197 14.5344C12.0633 14.6029 12.2476 13.7594 12.2204 13.8057C12.0422 14.1076 11.58 14.5294 11.3796 15.0518C11.2135 15.4786 11.0423 15.7082 10.9154 16.2366C10.8761 16.3806 10.9547 15.6004 10.9154 15.6951C8.53093 20.3013 8.07478 27.2791 8.32651 26.9772C13.4096 21.5556 19.2328 20.2691 19.2328 20.2691C18.6136 19.8131 17.2663 18.4944 15.9401 15.7504H15.9411Z" fill="url(#paint9_linear_2134_73)"/>
<path d="M35.2273 72.486C28.2068 69.4893 20.2237 65.2636 20.5258 55.6615C20.9366 43.0175 32.3233 45.5169 32.3233 45.5169C31.8933 45.6176 30.7443 46.439 30.3375 47.3107C29.9076 48.4008 29.1221 50.862 31.5006 53.4409C35.2354 57.4865 23.8276 63.04 41.4352 73.5299C41.8792 73.7714 37.3067 73.3859 35.2283 72.487L35.2273 72.486Z" fill="url(#paint10_linear_2134_73)"/>
<path d="M32.7331 66.1846C37.7115 67.917 43.5075 67.613 46.9835 65.6954C49.3085 64.4019 52.2901 62.3303 54.1248 62.8417C52.5358 62.2136 51.3325 61.9206 49.8855 61.8492C49.6388 61.8492 49.3438 61.8492 49.08 61.8169C48.5498 61.8151 48.0199 61.844 47.493 61.9035C46.5968 61.9861 45.603 62.5508 44.6997 62.4602C44.6514 62.4602 45.5758 62.0807 45.5053 62.0968C45.027 62.1974 44.5064 62.2186 43.9576 62.286C43.6082 62.3253 43.3081 62.3686 42.9617 62.3867C32.5901 63.2655 23.8296 56.7688 23.8296 56.7688C23.0834 59.2853 27.1697 64.2479 32.7431 66.1877L32.7331 66.1846Z" fill="url(#paint11_linear_2134_73)"/>
<path d="M81.9399 80.6949C92.4284 70.4003 97.735 57.8871 95.4915 43.853C95.4915 43.853 96.3877 51.0502 92.9892 58.4116C94.6215 51.2254 94.8118 42.2947 90.4719 33.045C84.6849 20.6999 75.1641 14.2043 71.529 11.4945C66.022 7.38852 63.7402 3.20806 63.6969 2.3454C62.0516 5.71553 57.0742 17.2634 63.1623 27.2087C68.8656 36.5259 77.8497 39.288 84.1401 47.8442C95.7282 63.5845 81.9399 80.6949 81.9399 80.6949Z" fill="url(#paint12_linear_2134_73)"/>
<path d="M80.4366 53.909C76.7712 46.3393 72.1987 43.0376 67.8688 39.4591C68.3722 40.1638 68.4961 40.4124 68.775 40.8684C72.5843 44.927 78.2011 54.8261 74.1229 67.2527C66.4469 90.6433 35.7469 79.6289 32.5247 76.5346C33.8267 90.0725 56.4902 96.5501 71.2521 87.7765C79.6501 79.8242 86.444 66.3145 80.4366 53.909Z" fill="url(#paint13_linear_2134_73)"/>
</g>
<defs>
<radialGradient id="paint0_radial_2134_73" cx="0" cy="0" r="1" gradientUnits="userSpaceOnUse" gradientTransform="translate(94.375 30.6262) rotate(2.25973) scale(34.532 50.8824)">
<stop offset="0.1" stop-color="#FFEA00"/>
<stop offset="0.17" stop-color="#FFDE00"/>
<stop offset="0.28" stop-color="#FFBF00"/>
<stop offset="0.43" stop-color="#FF8E00"/>
<stop offset="0.77" stop-color="#FF272D"/>
<stop offset="0.87" stop-color="#E0255A"/>
<stop offset="0.95" stop-color="#CC2477"/>
<stop offset="1" stop-color="#C42482"/>
</radialGradient>
<radialGradient id="paint1_radial_2134_73" cx="0" cy="0" r="1" gradientUnits="userSpaceOnUse" gradientTransform="translate(62.9658 15.4384) scale(97.9981 97.9646)">
<stop stop-color="#00CCDA"/>
<stop offset="0.22" stop-color="#0083FF"/>
<stop offset="0.26" stop-color="#007AF9"/>
<stop offset="0.33" stop-color="#005FE7"/>
<stop offset="0.44" stop-color="#2639AD"/>
<stop offset="0.52" stop-color="#401E84"/>
<stop offset="0.57" stop-color="#4A1475"/>
</radialGradient>
<linearGradient id="paint2_linear_2134_73" x1="54.44" y1="73.402" x2="35.1749" y2="10.3614" gradientUnits="userSpaceOnUse">
<stop stop-color="#000F43" stop-opacity="0.4"/>
<stop offset="0.48" stop-color="#001962" stop-opacity="0.17"/>
<stop offset="1" stop-color="#002079" stop-opacity="0"/>
</linearGradient>
<radialGradient id="paint3_radial_2134_73" cx="0" cy="0" r="1" gradientUnits="userSpaceOnUse" gradientTransform="translate(97.1594 65.8127) rotate(5.61568) scale(32.9451 32.9341)">
<stop stop-color="#FFEA00"/>
<stop offset="0.5" stop-color="#FF272D"/>
<stop offset="1" stop-color="#C42482"/>
</radialGradient>
<radialGradient id="paint4_radial_2134_73" cx="0" cy="0" r="1" gradientUnits="userSpaceOnUse" gradientTransform="translate(97.2849 34.0936) rotate(5.61568) scale(55.0151 54.9967)">
<stop stop-color="#FFE900"/>
<stop offset="0.16" stop-color="#FFAF0E"/>
<stop offset="0.32" stop-color="#FF7A1B"/>
<stop offset="0.47" stop-color="#FF4E26"/>
<stop offset="0.62" stop-color="#FF2C2E"/>
<stop offset="0.76" stop-color="#FF1434"/>
<stop offset="0.89" stop-color="#FF0538"/>
<stop offset="1" stop-color="#FF0039"/>
</radialGradient>
<radialGradient id="paint5_radial_2134_73" cx="0" cy="0" r="1" gradientUnits="userSpaceOnUse" gradientTransform="translate(100.037 85.5914) rotate(5.61567) scale(50.4824 50.4654)">
<stop stop-color="#FF272D"/>
<stop offset="0.5" stop-color="#C42482"/>
<stop offset="0.99" stop-color="#620700"/>
</radialGradient>
<radialGradient id="paint6_radial_2134_73" cx="0" cy="0" r="1" gradientUnits="userSpaceOnUse" gradientTransform="translate(72.0164 39.6645) scale(78.7619 78.7351)">
<stop offset="0.16" stop-color="#FFEA00"/>
<stop offset="0.23" stop-color="#FFDE00"/>
<stop offset="0.37" stop-color="#FFBF00"/>
<stop offset="0.54" stop-color="#FF8E00"/>
<stop offset="0.76" stop-color="#FF272D"/>
<stop offset="0.8" stop-color="#F92433"/>
<stop offset="0.84" stop-color="#E91C45"/>
<stop offset="0.89" stop-color="#CF0E62"/>
<stop offset="0.94" stop-color="#B5007F"/>
</radialGradient>
<radialGradient id="paint7_radial_2134_73" cx="0" cy="0" r="1" gradientUnits="userSpaceOnUse" gradientTransform="translate(67.5002 3.14968) scale(89.765 89.7343)">
<stop offset="0.28" stop-color="#FFEA00"/>
<stop offset="0.4" stop-color="#FFDD00"/>
<stop offset="0.63" stop-color="#FFBA00"/>
<stop offset="0.86" stop-color="#FF9100"/>
<stop offset="0.93" stop-color="#FF6711"/>
<stop offset="0.99" stop-color="#FF4A1D"/>
</radialGradient>
<linearGradient id="paint8_linear_2134_73" x1="14.9635" y1="36.7718" x2="53.6267" y2="30.8658" gradientUnits="userSpaceOnUse">
<stop stop-color="#C42482" stop-opacity="0.5"/>
<stop offset="0.47" stop-color="#FF272D" stop-opacity="0.5"/>
<stop offset="0.49" stop-color="#FF2C2C" stop-opacity="0.51"/>
<stop offset="0.68" stop-color="#FF7A1A" stop-opacity="0.72"/>
<stop offset="0.83" stop-color="#FFB20D" stop-opacity="0.87"/>
<stop offset="0.94" stop-color="#FFD605" stop-opacity="0.96"/>
<stop offset="1" stop-color="#FFE302"/>
</linearGradient>
<linearGradient id="paint9_linear_2134_73" x1="14.6023" y1="26.6369" x2="10.5731" y2="12.1502" gradientUnits="userSpaceOnUse">
<stop stop-color="#891551" stop-opacity="0.6"/>
<stop offset="1" stop-color="#C42482" stop-opacity="0"/>
</linearGradient>
<linearGradient id="paint10_linear_2134_73" x1="22.032" y1="46.9722" x2="30.3337" y2="58.5733" gradientUnits="userSpaceOnUse">
<stop offset="0.01" stop-color="#891551" stop-opacity="0.5"/>
<stop offset="0.48" stop-color="#FF272D" stop-opacity="0.5"/>
<stop offset="1" stop-color="#FF272D" stop-opacity="0"/>
</linearGradient>
<linearGradient id="paint11_linear_2134_73" x1="38.2082" y1="67.1654" x2="38.9677" y2="59.7138" gradientUnits="userSpaceOnUse">
<stop stop-color="#C42482"/>
<stop offset="0.08" stop-color="#C42482" stop-opacity="0.81"/>
<stop offset="0.21" stop-color="#C42482" stop-opacity="0.57"/>
<stop offset="0.33" stop-color="#C42482" stop-opacity="0.36"/>
<stop offset="0.45" stop-color="#C42482" stop-opacity="0.2"/>
<stop offset="0.56" stop-color="#C42482" stop-opacity="0.09"/>
<stop offset="0.67" stop-color="#C42482" stop-opacity="0.02"/>
<stop offset="0.77" stop-color="#C42482" stop-opacity="0"/>
</linearGradient>
<linearGradient id="paint12_linear_2134_73" x1="62.4836" y1="3.63587" x2="93.2446" y2="72.4445" gradientUnits="userSpaceOnUse">
<stop stop-color="#FFF14F"/>
<stop offset="0.27" stop-color="#FFEE4C"/>
<stop offset="0.45" stop-color="#FFE643"/>
<stop offset="0.61" stop-color="#FFD834"/>
<stop offset="0.76" stop-color="#FFC41E"/>
<stop offset="0.89" stop-color="#FFAB02"/>
<stop offset="0.9" stop-color="#FFA900"/>
<stop offset="0.95" stop-color="#FFA000"/>
<stop offset="1" stop-color="#FF9100"/>
</linearGradient>
<linearGradient id="paint13_linear_2134_73" x1="68.5615" y1="43.2047" x2="53.9916" y2="82.34" gradientUnits="userSpaceOnUse">
<stop stop-color="#FF8E00"/>
<stop offset="0.04" stop-color="#FF8E00" stop-opacity="0.86"/>
<stop offset="0.08" stop-color="#FF8E00" stop-opacity="0.73"/>
<stop offset="0.13" stop-color="#FF8E00" stop-opacity="0.63"/>
<stop offset="0.18" stop-color="#FF8E00" stop-opacity="0.56"/>
<stop offset="0.23" stop-color="#FF8E00" stop-opacity="0.51"/>
<stop offset="0.28" stop-color="#FF8E00" stop-opacity="0.5"/>
<stop offset="0.39" stop-color="#FF8E00" stop-opacity="0.48"/>
<stop offset="0.52" stop-color="#FF8E00" stop-opacity="0.42"/>
<stop offset="0.68" stop-color="#FF8E00" stop-opacity="0.31"/>
<stop offset="0.84" stop-color="#FF8E00" stop-opacity="0.17"/>
<stop offset="1" stop-color="#FF8E00" stop-opacity="0"/>
</linearGradient>
<clipPath id="clip0_2134_73">
<rect width="96" height="99.0505" fill="white"/>
</clipPath>
</defs>
</svg>
