<svg width="96" height="96" viewBox="0 0 96 96" fill="none" xmlns="http://www.w3.org/2000/svg">
<path d="M48 0C21.4886 0 0 21.4886 0 48C0 74.5114 21.4886 96 48 96C74.5114 96 96 74.5114 96 48C96 21.4886 74.5041 0 48 0ZM48 89.9436C24.8299 89.9436 6.05642 71.1629 6.05642 48C6.05642 24.8371 24.8371 6.05642 48 6.05642C71.1629 6.05642 89.9436 24.8299 89.9436 48C89.9436 71.1701 71.1629 89.9436 48 89.9436Z" fill="black"/>
<path d="M47.7446 81.702C66.4987 81.702 81.702 66.4987 81.702 47.7446C81.702 28.9905 66.4987 13.7871 47.7446 13.7871C28.9905 13.7871 13.7871 28.9905 13.7871 47.7446C13.7871 66.4987 28.9905 81.702 47.7446 81.702Z" fill="black"/>
<path d="M30.8467 43.5464C31.4092 43.5464 31.9265 43.6836 32.3985 43.9577C32.8706 44.2226 33.2472 44.5867 33.5285 45.0499C33.8097 45.5038 33.9504 46.0193 33.9504 46.596C33.9504 47.1634 33.8097 47.6835 33.5285 48.1563C33.2472 48.6197 32.8706 48.9885 32.3985 49.2627C31.9265 49.537 31.4092 49.674 30.8467 49.674H28.1801V53.4754H26.5531V43.5464H30.8467ZM30.8167 48.1988C31.0879 48.1988 31.3339 48.1281 31.5549 47.9861C31.7758 47.8349 31.9516 47.641 32.0822 47.4046C32.2228 47.1586 32.293 46.8891 32.293 46.596C32.293 46.1516 32.1475 45.7781 31.8562 45.4755C31.565 45.173 31.2184 45.0216 30.8167 45.0216H28.1801V48.1988H30.8167Z" fill="white"/>
<path d="M44.9301 48.511C44.9301 49.2297 44.8046 49.901 44.5534 50.5251C44.3023 51.1399 43.9407 51.6789 43.4688 52.1422C43.0066 52.6056 42.4593 52.9695 41.8265 53.2344C41.2039 53.4897 40.5158 53.6174 39.7625 53.6174C39.0093 53.6174 38.3162 53.4897 37.6834 53.2344C37.0507 52.9695 36.5033 52.6056 36.0413 52.1422C35.5793 51.6789 35.2227 51.1399 34.9716 50.5251C34.7205 49.901 34.595 49.2297 34.595 48.511C34.595 47.7922 34.7205 47.1255 34.9716 46.511C35.2227 45.8868 35.5793 45.343 36.0413 44.8798C36.5033 44.4165 37.0507 44.0571 37.6834 43.8017C38.3162 43.537 39.0093 43.4045 39.7625 43.4045C40.5158 43.4045 41.2039 43.537 41.8265 43.8017C42.4593 44.0571 43.0066 44.4165 43.4688 44.8798C43.9407 45.343 44.3023 45.8868 44.5534 46.511C44.8046 47.1255 44.9301 47.7922 44.9301 48.511ZM43.2729 48.511C43.2729 47.8207 43.1222 47.2059 42.821 46.667C42.5196 46.1186 42.1027 45.6883 41.5704 45.3763C41.0482 45.0547 40.4455 44.8939 39.7625 44.8939C39.0694 44.8939 38.4569 45.0547 37.9245 45.3763C37.4023 45.6883 36.9903 46.1186 36.6891 46.667C36.3979 47.2059 36.2522 47.8207 36.2522 48.511C36.2522 49.2012 36.3979 49.8206 36.6891 50.3691C36.9903 50.9081 37.4023 51.3384 37.9245 51.6598C38.4569 51.972 39.0694 52.128 39.7625 52.128C40.4455 52.128 41.0482 51.972 41.5704 51.6598C42.1027 51.3384 42.5196 50.9033 42.821 50.3549C43.1222 49.8065 43.2729 49.1918 43.2729 48.511Z" fill="white"/>
<path d="M50.7994 53.4754H45.7675V52.057H47.4699V44.9648H45.7675V43.5464H50.7994V44.9648H49.0969V52.057H50.7994V53.4754Z" fill="white"/>
<path d="M59.9677 43.5464H61.5947V53.4754H60.1033L53.9714 45.901C54.0316 46.4779 54.087 47.0547 54.1372 47.6316C54.1974 48.1989 54.2275 48.7711 54.2275 49.3478V53.4754H52.6003V43.5464H54.0618L60.1936 51.2769C60.1033 50.5867 60.0429 49.8442 60.0127 49.05C59.9826 48.2462 59.9677 47.4991 59.9677 46.8089V43.5464Z" fill="white"/>
<path d="M65.7976 53.4754V45.0216H62.8447V43.5464H70.468V45.0216H67.4246V53.4754H65.7976Z" fill="white"/>
</svg>
